<svg width="512" height="512" viewBox="0 0 512 512" fill="none" xmlns="http://www.w3.org/2000/svg">
  <rect width="512" height="512" rx="256" fill="#2196F3"/>
  <path d="M256 128C282.5 128 304 149.5 304 176C304 202.5 282.5 224 256 224H208V176C208 149.5 229.5 128 256 128ZM256 96C212.7 96 176 132.7 176 176V368C176 376.8 183.2 384 192 384C200.8 384 208 376.8 208 368V288H256C300.2 288 336 252.2 336 208C336 163.8 300.2 128 256 128V96ZM368 256C376.8 256 384 248.8 384 240C384 231.2 376.8 224 368 224H336C327.2 224 320 231.2 320 240C320 248.8 327.2 256 336 256H368Z" fill="white"/>
</svg>